# xmcd
#
# Track frame offsets:
#	150
#	15348
#	31593
#	49253
#	66723
#	85735
#	102421
#	119395
#	134130
#	146906
#	160792
#	178645
#	193106
#	209845
#	226152
#	242744
#	256425
#
# Disc length: 3659 seconds
#
# Revision: 1
# Processed by: cddbd v1.5.1PL0 Copyright (c) Steve Scherf et al.
# Submitted via: audiograbber 1.83.01
#
DISCID=fb0e4911
DTITLE=Various Artist - RC60
DYEAR=2000
DGENRE=Country
TTITLE0=Jo Dee Messina - That's The Way
TTITLE1=Lonestar - What About Now
TTITLE2=Tim McGraw - Some Things Never Change
TTITLE3=Lee Ann Womack - I Hope You Dance
TTITLE4=Dixie Chicks - Cold Day In July
TTITLE5=Rascal Flatts - Prayin' For Daylight
TTITLE6=SheDaisy - I Will... But
TTITLE7=Eric Heatherly - Flowers On The Wall
TTITLE8=Alan Jackson - It Must Be Love
TTITLE9=Brooks And Dunn - You'll Always Be Loved By Me
TTITLE10=Steve Wariner - Faith In You
TTITLE11=River Road - Breathless
TTITLE12=Judds - Stuck InLove
TTITLE13=Kinleys - She Ain't The Girl For You
TTITLE14=Warren Brothers ft. Sara Evans - That's The Beat Of A Broken Heart
TTITLE15=Joe Diffie - It's Always Somethin'
TTITLE16=Clay Davidson - Unconditional
EXTD=
EXTT0=
EXTT1=
EXTT2=
EXTT3=
EXTT4=
EXTT5=
EXTT6=
EXTT7=
EXTT8=
EXTT9=
EXTT10=
EXTT11=
EXTT12=
EXTT13=
EXTT14=
EXTT15=
EXTT16=
PLAYORDER=
